<svg width="458" height="174" viewBox="0 0 458 174" fill="none" xmlns="http://www.w3.org/2000/svg">
<path d="M168.126 95.0156V44.3031H186.029C189.387 44.3031 192.337 44.9384 194.878 46.2091C197.419 47.4797 199.393 49.2949 200.8 51.6547C202.252 54.0145 202.979 56.7827 202.979 59.9593C202.979 63.5443 202.071 66.5848 200.256 69.0808C198.44 71.5767 195.99 73.3692 192.904 74.4583L204.68 95.0156H196.92L184.531 73.0288L188.956 75.6155H174.797V95.0156H168.126ZM174.797 69.4892H186.233C188.23 69.4892 189.977 69.1034 191.475 68.332C192.972 67.5605 194.129 66.4487 194.946 64.9965C195.808 63.5444 196.24 61.8653 196.24 59.9593C196.24 58.0079 195.808 56.3289 194.946 54.9221C194.129 53.4699 192.972 52.3581 191.475 51.5866C189.977 50.8152 188.23 50.4294 186.233 50.4294H174.797V69.4892ZM236.499 95.8325C232.914 95.8325 229.556 95.1971 226.425 93.9265C223.293 92.6105 220.548 90.7726 218.188 88.4128C215.874 86.053 214.058 83.2848 212.742 80.1082C211.426 76.8862 210.768 73.3919 210.768 69.6253C210.768 65.8134 211.426 62.3191 212.742 59.1425C214.058 55.9658 215.874 53.1976 218.188 50.8379C220.548 48.4781 223.271 46.6629 226.356 45.3922C229.488 44.1216 232.869 43.4862 236.499 43.4862C240.129 43.4862 243.488 44.1442 246.573 45.4603C249.705 46.7309 252.428 48.5461 254.742 50.9059C257.102 53.2203 258.94 55.9658 260.256 59.1425C261.617 62.3191 262.298 65.8134 262.298 69.6253C262.298 73.3919 261.617 76.8862 260.256 80.1082C258.94 83.2848 257.102 86.053 254.742 88.4128C252.428 90.7726 249.705 92.6105 246.573 93.9265C243.488 95.1971 240.129 95.8325 236.499 95.8325ZM236.499 89.6381C239.313 89.6381 241.877 89.1389 244.191 88.1405C246.505 87.0968 248.502 85.6673 250.181 83.8521C251.906 81.9915 253.222 79.8586 254.129 77.4534C255.082 75.0029 255.559 72.3935 255.559 69.6253C255.559 66.8571 255.082 64.2704 254.129 61.8653C253.222 59.4601 251.906 57.3499 250.181 55.5347C248.502 53.6741 246.505 52.2446 244.191 51.2463C241.877 50.2025 239.313 49.6807 236.499 49.6807C233.731 49.6807 231.19 50.2025 228.875 51.2463C226.561 52.2446 224.541 53.6741 222.817 55.5347C221.138 57.3499 219.822 59.4601 218.869 61.8653C217.916 64.2704 217.439 66.8571 217.439 69.6253C217.439 72.3935 217.916 75.0029 218.869 77.4534C219.822 79.8586 221.138 81.9915 222.817 83.8521C224.541 85.6673 226.561 87.0968 228.875 88.1405C231.19 89.1389 233.731 89.6381 236.499 89.6381ZM296.26 95.8325C292.675 95.8325 289.317 95.1971 286.186 93.9265C283.054 92.6105 280.309 90.7726 277.949 88.4128C275.635 86.053 273.82 83.2848 272.504 80.1082C271.187 76.8862 270.529 73.3919 270.529 69.6253C270.529 65.8134 271.187 62.3191 272.504 59.1425C273.82 55.9658 275.635 53.1976 277.949 50.8379C280.309 48.4781 283.032 46.6629 286.118 45.3922C289.249 44.1216 292.63 43.4862 296.26 43.4862C299.891 43.4862 303.249 44.1442 306.335 45.4603C309.466 46.7309 312.189 48.5461 314.503 50.9059C316.863 53.2203 318.701 55.9658 320.017 59.1425C321.378 62.3191 322.059 65.8134 322.059 69.6253C322.059 73.3919 321.378 76.8862 320.017 80.1082C318.701 83.2848 316.863 86.053 314.503 88.4128C312.189 90.7726 309.466 92.6105 306.335 93.9265C303.249 95.1971 299.891 95.8325 296.26 95.8325ZM296.26 89.6381C299.074 89.6381 301.638 89.1389 303.952 88.1405C306.267 87.0968 308.263 85.6673 309.942 83.8521C311.667 81.9915 312.983 79.8586 313.89 77.4534C314.843 75.0029 315.32 72.3935 315.32 69.6253C315.32 66.8571 314.843 64.2704 313.89 61.8653C312.983 59.4601 311.667 57.3499 309.942 55.5347C308.263 53.6741 306.267 52.2446 303.952 51.2463C301.638 50.2025 299.074 49.6807 296.26 49.6807C293.492 49.6807 290.951 50.2025 288.636 51.2463C286.322 52.2446 284.302 53.6741 282.578 55.5347C280.899 57.3499 279.583 59.4601 278.63 61.8653C277.677 64.2704 277.2 66.8571 277.2 69.6253C277.2 72.3935 277.677 75.0029 278.63 77.4534C279.583 79.8586 280.899 81.9915 282.578 83.8521C284.302 85.6673 286.322 87.0968 288.636 88.1405C290.951 89.1389 293.492 89.6381 296.26 89.6381ZM331.788 95.0156V44.3031H337.915L356.906 71.3271H353.775L372.63 44.3031H378.757V95.0156H372.018V52.7438L374.4 53.4926L355.545 80.0401H355L336.349 53.4926L338.459 52.7438V95.0156H331.788Z" fill="white"/>
<path d="M193.367 159.573C189.737 159.573 186.356 158.915 183.224 157.599C180.139 156.283 177.438 154.445 175.124 152.085C172.81 149.725 170.994 146.957 169.678 143.78C168.408 140.604 167.772 137.132 167.772 133.366C167.772 129.599 168.408 126.127 169.678 122.951C170.949 119.729 172.742 116.961 175.056 114.646C177.37 112.286 180.071 110.471 183.156 109.201C186.288 107.884 189.691 107.226 193.367 107.226C197.043 107.226 200.333 107.839 203.237 109.064C206.187 110.29 208.683 111.923 210.725 113.965C212.767 116.008 214.219 118.277 215.081 120.773L205.756 125.265C204.894 122.815 203.373 120.795 201.195 119.207C199.062 117.573 196.453 116.756 193.367 116.756C190.372 116.756 187.74 117.46 185.471 118.867C183.202 120.273 181.432 122.225 180.161 124.721C178.936 127.171 178.323 130.053 178.323 133.366C178.323 136.678 178.936 139.583 180.161 142.079C181.432 144.574 183.202 146.526 185.471 147.933C187.74 149.339 190.372 150.043 193.367 150.043C196.453 150.043 199.062 149.249 201.195 147.66C203.373 146.027 204.894 143.985 205.756 141.534L215.081 146.027C214.219 148.523 212.767 150.792 210.725 152.834C208.683 154.876 206.187 156.51 203.237 157.735C200.333 158.96 197.043 159.573 193.367 159.573ZM247.242 159.573C243.43 159.573 239.891 158.915 236.623 157.599C233.356 156.283 230.497 154.445 228.046 152.085C225.641 149.68 223.758 146.889 222.396 143.712C221.035 140.536 220.354 137.087 220.354 133.366C220.354 129.644 221.012 126.195 222.328 123.019C223.69 119.842 225.573 117.074 227.978 114.714C230.429 112.354 233.288 110.517 236.555 109.201C239.822 107.884 243.385 107.226 247.242 107.226C251.099 107.226 254.662 107.884 257.929 109.201C261.197 110.517 264.033 112.354 266.438 114.714C268.889 117.074 270.772 119.842 272.088 123.019C273.449 126.195 274.13 129.644 274.13 133.366C274.13 137.087 273.449 140.536 272.088 143.712C270.726 146.889 268.82 149.68 266.37 152.085C263.965 154.445 261.129 156.283 257.861 157.599C254.594 158.915 251.054 159.573 247.242 159.573ZM247.242 150.043C249.557 150.043 251.689 149.634 253.641 148.818C255.637 148.001 257.385 146.866 258.882 145.414C260.38 143.916 261.537 142.147 262.354 140.105C263.171 138.062 263.579 135.816 263.579 133.366C263.579 130.915 263.171 128.691 262.354 126.695C261.537 124.653 260.38 122.883 258.882 121.385C257.385 119.888 255.637 118.753 253.641 117.982C251.689 117.165 249.557 116.756 247.242 116.756C244.928 116.756 242.772 117.165 240.775 117.982C238.824 118.753 237.1 119.888 235.602 121.385C234.105 122.883 232.947 124.653 232.13 126.695C231.314 128.691 230.905 130.915 230.905 133.366C230.905 135.816 231.314 138.062 232.13 140.105C232.947 142.147 234.105 143.916 235.602 145.414C237.1 146.866 238.824 148.001 240.775 148.818C242.772 149.634 244.928 150.043 247.242 150.043ZM281.613 158.756V108.043H298.154C303.645 108.043 308.41 109.132 312.449 111.311C316.488 113.489 319.619 116.484 321.843 120.296C324.066 124.108 325.178 128.464 325.178 133.366C325.178 138.267 324.066 142.646 321.843 146.503C319.619 150.315 316.488 153.31 312.449 155.488C308.41 157.667 303.645 158.756 298.154 158.756H281.613ZM292.164 149.566H298.426C301.739 149.566 304.598 148.908 307.003 147.592C309.408 146.231 311.269 144.348 312.585 141.942C313.946 139.492 314.627 136.633 314.627 133.366C314.627 130.053 313.946 127.194 312.585 124.789C311.269 122.384 309.408 120.523 307.003 119.207C304.598 117.891 301.739 117.233 298.426 117.233H292.164V149.566ZM331.935 158.756V108.043H366.038V117.233H342.486V128.737H364.677V137.926H342.486V149.566H366.038V158.756H331.935ZM372.019 158.756V108.043H391.419C394.914 108.043 397.999 108.656 400.677 109.881C403.4 111.106 405.533 112.922 407.075 115.327C408.618 117.732 409.39 120.704 409.39 124.244C409.39 127.693 408.596 130.643 407.007 133.093C405.419 135.498 403.286 137.314 400.609 138.539L412.181 158.756H400.336L387.811 136.361L394.619 140.377H382.57V158.756H372.019ZM382.57 131.187H391.487C392.985 131.187 394.278 130.892 395.367 130.302C396.456 129.712 397.296 128.896 397.886 127.852C398.521 126.808 398.839 125.606 398.839 124.244C398.839 122.837 398.521 121.612 397.886 120.568C397.296 119.525 396.456 118.708 395.367 118.118C394.278 117.528 392.985 117.233 391.487 117.233H382.57V131.187ZM435.869 159.573C432.692 159.573 429.697 159.005 426.883 157.871C424.115 156.691 421.71 155.035 419.668 152.902C417.671 150.769 416.174 148.25 415.175 145.346L423.82 141.466C425.091 144.234 426.838 146.412 429.062 148.001C431.331 149.589 433.827 150.383 436.549 150.383C438.002 150.383 439.25 150.156 440.293 149.702C441.337 149.249 442.154 148.636 442.744 147.865C443.334 147.048 443.629 146.095 443.629 145.006C443.629 143.826 443.266 142.827 442.54 142.011C441.814 141.148 440.679 140.468 439.136 139.968L429.198 136.701C425.159 135.385 422.118 133.524 420.076 131.119C418.034 128.669 417.013 125.742 417.013 122.338C417.013 119.343 417.739 116.711 419.191 114.442C420.689 112.173 422.754 110.403 425.386 109.132C428.063 107.862 431.126 107.226 434.575 107.226C437.616 107.226 440.429 107.748 443.016 108.792C445.603 109.836 447.826 111.311 449.687 113.217C451.593 115.123 453.023 117.414 453.976 120.092L445.399 123.972C444.446 121.612 443.016 119.774 441.11 118.458C439.204 117.097 437.026 116.416 434.575 116.416C433.169 116.416 431.921 116.643 430.832 117.097C429.742 117.55 428.903 118.209 428.313 119.071C427.723 119.888 427.428 120.841 427.428 121.93C427.428 123.11 427.814 124.153 428.585 125.061C429.357 125.923 430.514 126.604 432.057 127.103L441.791 130.234C445.875 131.55 448.916 133.388 450.912 135.748C452.954 138.108 453.976 140.989 453.976 144.393C453.976 147.343 453.204 149.975 451.661 152.289C450.118 154.558 447.985 156.351 445.262 157.667C442.585 158.937 439.454 159.573 435.869 159.573Z" fill="white"/>
<path fill-rule="evenodd" clip-rule="evenodd" d="M136.891 38.6762L66.0837 0.242188L0.777344 45.5275V158.394L34.9981 137.658V64.0102L66.0837 40.9417L103.575 58.7085L136.891 38.6762ZM140.074 79.0359V42.3279L66.2281 87.1587V114.029L140.074 158.1V121.1L107.904 100.011L140.074 79.0359Z" fill="white"/>
</svg>
